<svg xmlns="http://www.w3.org/2000/svg" viewBox="0 0 100 100" fill="none" stroke="#7c9128" stroke-width="2.5" stroke-linecap="round" stroke-linejoin="round">
  <path d="M 28 38 L 28 82 C 28 88, 34 92, 50 92 C 66 92, 72 88, 72 82 L 72 38 Z" fill="#7c9128" fill-opacity="0.05" />
  <path d="M 28 55 L 28 82 C 28 88, 34 92, 50 92 C 66 92, 72 88, 72 82 L 72 55 Z" fill="#7c9128" fill-opacity="0.2" />
  <path d="M 28 55 C 40 52, 60 52, 72 55" />
  <path d="M 50 55 C 60 52, 72 55 L 72 82 C 72 88, 66 92, 50 92 Z" fill="#7c9128" fill-opacity="0.1" stroke="none" />
  <rect x="24" y="24" width="52" height="14" rx="3" fill="#7c9128" fill-opacity="0.15" />
  <line x1="24" y1="31" x2="76" y2="31" />
</svg>