<svg xmlns="http://www.w3.org/2000/svg" viewBox="0 0 100 100" fill="none" stroke="#7c9128" stroke-width="2.5" stroke-linecap="round" stroke-linejoin="round">
  <path d="M 38 30 C 53 30, 60 52, 60 66 C 60 80, 48 85, 38 85 C 28 85, 16 80, 16 66 C 16 52, 23 30, 38 30 Z" fill="#7c9128" fill-opacity="0.15" />
  <path d="M 38 30 C 48 35, 60 52, 60 66 C 60 80, 48 85, 38 85 Z" fill="#7c9128" fill-opacity="0.1" stroke="none" />
  
  <path d="M 62 38 C 77 38, 84 58, 84 72 C 84 86, 74 90, 62 90 C 50 90, 40 86, 40 72 C 40 58, 47 38, 62 38 Z" fill="#7c9128" fill-opacity="0.15" />
  <path d="M 62 38 C 72 43, 84 58, 84 72 C 84 86, 74 90, 62 90 Z" fill="#7c9128" fill-opacity="0.1" stroke="none" />
</svg>