<svg xmlns="http://www.w3.org/2000/svg" viewBox="0 0 100 100" fill="none" stroke="#7c9128" stroke-width="2.5" stroke-linecap="round" stroke-linejoin="round">
  
  <rect x="22" y="46" width="56" height="42" fill="#7c9128" fill-opacity="0.1" />
  
  <rect x="50" y="46" width="28" height="42" fill="#7c9128" fill-opacity="0.05" stroke="none" />
  
  <rect x="22" y="60" width="56" height="12" fill="#ffffff" />
  <rect x="22" y="60" width="56" height="12" fill="#7c9128" fill-opacity="0.2" />
  
  <rect x="43" y="46" width="14" height="42" fill="#ffffff" />
  <rect x="43" y="46" width="14" height="42" fill="#7c9128" fill-opacity="0.2" />
  
  <rect x="18" y="34" width="64" height="12" rx="1.5" fill="#ffffff" />
  <rect x="18" y="34" width="64" height="12" rx="1.5" fill="#7c9128" fill-opacity="0.1" />
  
  <rect x="50" y="34" width="32" height="12" fill="#7c9128" fill-opacity="0.05" stroke="none" />
  
  <rect x="43" y="34" width="14" height="12" fill="#ffffff" />
  <rect x="43" y="34" width="14" height="12" fill="#7c9128" fill-opacity="0.2" />
  
  <path d="M 48 34 C 32 18, 18 32, 47 38 Z" fill="#ffffff" />
  <path d="M 48 34 C 32 18, 18 32, 47 38 Z" fill="#7c9128" fill-opacity="0.25" />
  
  <path d="M 52 34 C 68 18, 82 32, 53 38 Z" fill="#ffffff" />
  <path d="M 52 34 C 68 18, 82 32, 53 38 Z" fill="#7c9128" fill-opacity="0.25" />
  
  <circle cx="50" cy="34" r="4.5" fill="#ffffff" />
  <circle cx="50" cy="34" r="4.5" fill="#7c9128" fill-opacity="0.4" />

</svg>